<mxfile host="65bd71144e" scale="3" border="10">
    <diagram id="bZ5vdFED0HxuOj-mL_6w" name="Page-1">
        <mxGraphModel dx="1760" dy="659" grid="1" gridSize="10" guides="1" tooltips="1" connect="1" arrows="1" fold="1" page="1" pageScale="1" pageWidth="827" pageHeight="1169" math="0" shadow="0">
            <root>
                <mxCell id="0"/>
                <mxCell id="1" parent="0"/>
                <mxCell id="31" value="&lt;b&gt;Act&lt;br&gt;&lt;/b&gt;" style="ellipse;whiteSpace=wrap;html=1;rounded=0;shadow=0;glass=0;comic=0;strokeColor=#000000;strokeWidth=2;fillColor=#67A9CF;gradientColor=none;fontSize=14;fontColor=#000000;align=center;" parent="1" vertex="1">
                    <mxGeometry x="80" y="160" width="120" height="120" as="geometry"/>
                </mxCell>
                <mxCell id="34" value="&lt;b&gt;Legal&lt;br&gt;Resource&lt;br&gt;Impact&lt;/b&gt;" style="ellipse;whiteSpace=wrap;html=1;rounded=0;shadow=0;glass=0;comic=0;strokeColor=#000000;strokeWidth=2;fillColor=#D1E5F0;gradientColor=none;fontSize=14;fontColor=#000000;align=center;" parent="1" vertex="1">
                    <mxGeometry x="239" y="520" width="120" height="120" as="geometry"/>
                </mxCell>
                <mxCell id="40" value="&lt;b&gt;Legal&lt;br&gt;Resource&lt;br&gt;Subdivision&lt;/b&gt;" style="ellipse;whiteSpace=wrap;html=1;rounded=0;shadow=0;glass=0;comic=0;strokeColor=#000000;strokeWidth=2;fillColor=#D1E5F0;gradientColor=none;fontSize=14;fontColor=#000000;align=center;" parent="1" vertex="1">
                    <mxGeometry x="80" y="360" width="120" height="120" as="geometry"/>
                </mxCell>
                <mxCell id="41" value="&lt;b&gt;Consolidation&lt;br&gt;Abstract&lt;br&gt;&lt;/b&gt;" style="ellipse;whiteSpace=wrap;html=1;rounded=0;shadow=0;glass=0;comic=0;strokeColor=#000000;strokeWidth=2;fillColor=#67A9CF;gradientColor=none;fontSize=14;fontColor=#000000;align=center;" parent="1" vertex="1">
                    <mxGeometry x="400" y="160" width="120" height="120" as="geometry"/>
                </mxCell>
                <mxCell id="42" value="&lt;b&gt;Legal&lt;br&gt;Resource&lt;br&gt;Subdivision&lt;/b&gt;" style="ellipse;whiteSpace=wrap;html=1;rounded=0;shadow=0;glass=0;comic=0;strokeColor=#000000;strokeWidth=2;fillColor=#D1E5F0;gradientColor=none;fontSize=14;fontColor=#000000;align=center;" parent="1" vertex="1">
                    <mxGeometry x="400" y="360" width="120" height="120" as="geometry"/>
                </mxCell>
                <mxCell id="43" value="&lt;span style=&quot;background-color: rgb(209, 229, 240);&quot;&gt;impactFromLegalResource&lt;/span&gt;" style="endArrow=block;html=1;strokeColor=#000000;fontSize=14;fontColor=#000000;endFill=1;entryX=0.5;entryY=1;entryDx=0;entryDy=0;exitX=0;exitY=0.5;exitDx=0;exitDy=0;edgeStyle=orthogonalEdgeStyle;rounded=0;" parent="1" source="34" target="40" edge="1">
                    <mxGeometry x="0.6842" width="50" height="50" relative="1" as="geometry">
                        <mxPoint x="89" y="600" as="sourcePoint"/>
                        <mxPoint x="289" y="470" as="targetPoint"/>
                        <mxPoint as="offset"/>
                    </mxGeometry>
                </mxCell>
                <mxCell id="44" value="&lt;span style=&quot;background-color: rgb(209, 229, 240);&quot;&gt;impactToLegalResource&lt;/span&gt;" style="endArrow=block;html=1;strokeColor=#000000;fontSize=14;fontColor=#000000;endFill=1;entryX=0.5;entryY=1;entryDx=0;entryDy=0;exitX=1;exitY=0.5;exitDx=0;exitDy=0;edgeStyle=orthogonalEdgeStyle;rounded=0;" parent="1" source="34" target="42" edge="1">
                    <mxGeometry x="0.6842" width="50" height="50" relative="1" as="geometry">
                        <mxPoint x="266.57359312880703" y="547.573593128807" as="sourcePoint"/>
                        <mxPoint x="111.42640687119297" y="482.42640687119297" as="targetPoint"/>
                        <mxPoint as="offset"/>
                    </mxGeometry>
                </mxCell>
                <mxCell id="45" value="&lt;span style=&quot;background-color: rgb(209, 229, 240);&quot;&gt;legalResourceSubdivisionIsPartOf&lt;/span&gt;" style="endArrow=block;html=1;strokeColor=#000000;fontSize=14;fontColor=#000000;endFill=1;entryX=0.5;entryY=1;entryDx=0;entryDy=0;exitX=0.5;exitY=0;exitDx=0;exitDy=0;" parent="1" source="40" target="31" edge="1">
                    <mxGeometry width="50" height="50" relative="1" as="geometry">
                        <mxPoint x="357.57359312880703" y="597.573593128807" as="sourcePoint"/>
                        <mxPoint x="202.42640687119297" y="532.426406871193" as="targetPoint"/>
                        <Array as="points"/>
                    </mxGeometry>
                </mxCell>
                <mxCell id="46" value="&lt;span style=&quot;background-color: rgb(209, 229, 240);&quot;&gt;legalResourceSubdivisionIsPartOf&lt;/span&gt;" style="endArrow=block;html=1;strokeColor=#000000;fontSize=14;fontColor=#000000;endFill=1;entryX=0.5;entryY=1;entryDx=0;entryDy=0;exitX=0.5;exitY=0;exitDx=0;exitDy=0;" parent="1" source="42" target="41" edge="1">
                    <mxGeometry width="50" height="50" relative="1" as="geometry">
                        <mxPoint x="-10" y="410" as="sourcePoint"/>
                        <mxPoint x="-10" y="330" as="targetPoint"/>
                        <Array as="points"/>
                    </mxGeometry>
                </mxCell>
                <mxCell id="47" value="&lt;b&gt;Information&lt;br&gt;Source&lt;/b&gt;" style="ellipse;whiteSpace=wrap;html=1;rounded=0;shadow=0;glass=0;comic=0;strokeColor=#000000;strokeWidth=2;fillColor=#E6FFCC;gradientColor=none;fontSize=14;fontColor=#000000;align=center;" vertex="1" parent="1">
                    <mxGeometry x="239" y="720" width="120" height="120" as="geometry"/>
                </mxCell>
                <mxCell id="48" value="&lt;span style=&quot;background-color: rgb(209, 229, 240);&quot;&gt;informationSource&lt;/span&gt;" style="endArrow=block;html=1;strokeColor=#000000;fontSize=14;fontColor=#000000;endFill=1;entryX=0.5;entryY=0;entryDx=0;entryDy=0;exitX=0.5;exitY=1;exitDx=0;exitDy=0;" edge="1" parent="1" source="34" target="47">
                    <mxGeometry width="50" height="50" relative="1" as="geometry">
                        <mxPoint x="266.57359312880703" y="547.573593128807" as="sourcePoint"/>
                        <mxPoint x="111.42640687119297" y="472.42640687119297" as="targetPoint"/>
                        <Array as="points"/>
                    </mxGeometry>
                </mxCell>
                <mxCell id="57" value="&lt;b&gt;Consolidation&lt;br&gt;&lt;/b&gt;" style="ellipse;whiteSpace=wrap;html=1;rounded=0;shadow=0;glass=0;comic=0;strokeColor=#000000;strokeWidth=2;fillColor=#67A9CF;gradientColor=none;fontSize=14;fontColor=#000000;align=center;" vertex="1" parent="1">
                    <mxGeometry x="637.5699999999999" y="160" width="120" height="120" as="geometry"/>
                </mxCell>
                <mxCell id="58" value="&lt;b&gt;Legal&lt;br&gt;Resource&lt;br&gt;Subdivision&lt;/b&gt;" style="ellipse;whiteSpace=wrap;html=1;rounded=0;shadow=0;glass=0;comic=0;strokeColor=#000000;strokeWidth=2;fillColor=#D1E5F0;gradientColor=none;fontSize=14;fontColor=#000000;align=center;" vertex="1" parent="1">
                    <mxGeometry x="637.5699999999999" y="360" width="120" height="120" as="geometry"/>
                </mxCell>
                <mxCell id="59" value="&lt;span style=&quot;background-color: rgb(209, 229, 240);&quot;&gt;impactConsolidatedBy&lt;/span&gt;" style="endArrow=block;html=1;strokeColor=#000000;fontSize=14;fontColor=#000000;endFill=1;entryX=0.5;entryY=1;entryDx=0;entryDy=0;exitX=1;exitY=0.5;exitDx=0;exitDy=0;edgeStyle=orthogonalEdgeStyle;rounded=0;" edge="1" parent="1" target="58" source="34">
                    <mxGeometry x="0.8597" width="50" height="50" relative="1" as="geometry">
                        <mxPoint x="578.9964068711927" y="537.5735931288073" as="sourcePoint"/>
                        <mxPoint x="348.99640687119296" y="482.42640687119297" as="targetPoint"/>
                        <mxPoint as="offset"/>
                    </mxGeometry>
                </mxCell>
                <mxCell id="60" value="&lt;span style=&quot;background-color: rgb(209, 229, 240);&quot;&gt;legalResourceSubdivisionIsPartOf&lt;/span&gt;" style="endArrow=block;html=1;strokeColor=#000000;fontSize=14;fontColor=#000000;endFill=1;entryX=0.5;entryY=1;entryDx=0;entryDy=0;exitX=0.5;exitY=0;exitDx=0;exitDy=0;" edge="1" parent="1" source="58" target="57">
                    <mxGeometry width="50" height="50" relative="1" as="geometry">
                        <mxPoint x="227.57" y="410" as="sourcePoint"/>
                        <mxPoint x="227.57" y="330" as="targetPoint"/>
                        <Array as="points"/>
                    </mxGeometry>
                </mxCell>
                <mxCell id="61" value="&lt;span style=&quot;background-color: rgb(209, 229, 240);&quot;&gt;isMemberOf&lt;/span&gt;" style="endArrow=block;html=1;strokeColor=#000000;fontSize=14;fontColor=#000000;endFill=1;entryX=1;entryY=0.5;entryDx=0;entryDy=0;exitX=0;exitY=0.5;exitDx=0;exitDy=0;" edge="1" parent="1" source="57" target="41">
                    <mxGeometry width="50" height="50" relative="1" as="geometry">
                        <mxPoint x="850" y="330" as="sourcePoint"/>
                        <mxPoint x="1147.5699999999997" y="230" as="targetPoint"/>
                        <Array as="points"/>
                    </mxGeometry>
                </mxCell>
                <mxCell id="62" value="" style="endArrow=none;dashed=1;html=1;dashPattern=1 3;strokeWidth=2;rounded=0;" edge="1" parent="1">
                    <mxGeometry width="50" height="50" relative="1" as="geometry">
                        <mxPoint x="299" y="500" as="sourcePoint"/>
                        <mxPoint x="299" y="130" as="targetPoint"/>
                    </mxGeometry>
                </mxCell>
                <mxCell id="63" value="&lt;b&gt;Impact From&lt;/b&gt;" style="text;strokeColor=none;align=right;fillColor=none;html=1;verticalAlign=middle;whiteSpace=wrap;rounded=0;" vertex="1" parent="1">
                    <mxGeometry x="224" y="130" width="60" height="40" as="geometry"/>
                </mxCell>
                <mxCell id="64" value="&lt;b&gt;Impact &lt;br&gt;To&lt;/b&gt;" style="text;strokeColor=none;align=left;fillColor=none;html=1;verticalAlign=middle;whiteSpace=wrap;rounded=0;" vertex="1" parent="1">
                    <mxGeometry x="311" y="130" width="60" height="40" as="geometry"/>
                </mxCell>
            </root>
        </mxGraphModel>
    </diagram>
</mxfile>